<?xml version="1.0" encoding="utf-8" standalone="no"?>
<!DOCTYPE svg PUBLIC "-//W3C//DTD SVG 1.1//EN"
  "http://www.w3.org/Graphics/SVG/1.1/DTD/svg11.dtd">
<!-- Created with matplotlib (https://matplotlib.org/) -->
<svg height="360pt" version="1.1" viewBox="0 0 360 360" width="360pt" xmlns="http://www.w3.org/2000/svg" xmlns:xlink="http://www.w3.org/1999/xlink">
 <defs>
  <style type="text/css">
*{stroke-linecap:butt;stroke-linejoin:round;}
  </style>
 </defs>
 <g id="figure_1">
  <g id="patch_1">
   <path d="M 0 360 
L 360 360 
L 360 0 
L 0 0 
z
" style="fill:#ffffff;"/>
  </g>
  <g id="axes_1">
   <g id="patch_2">
    <path d="M 0 360 
L 360 360 
L 360 0 
L 0 0 
z
" style="fill:#ffffff;"/>
   </g>
   <g id="matplotlib.axis_1">
    <g id="xtick_1">
     <g id="line2d_1">
      <defs>
       <path d="M 0 0 
L 0 3.5 
" id="m76180c37c5" style="stroke:#000000;stroke-width:0.8;"/>
      </defs>
      <g>
       <use style="stroke:#000000;stroke-width:0.8;" x="0" xlink:href="#m76180c37c5" y="360"/>
      </g>
     </g>
     <g id="text_1">
      <!-- 0.5 -->
      <defs>
       <path d="M 27.796875 65.40625 
Q 22 65.40625 18.640625 62.296875 
Q 15.296875 59.203125 13.59375 54.59375 
Q 11.90625 50 11.453125 44.796875 
Q 11 39.59375 11 35.40625 
Q 11 31.203125 11.453125 26 
Q 11.90625 20.796875 13.59375 16.1875 
Q 15.296875 11.59375 18.640625 8.5 
Q 22 5.40625 27.796875 5.40625 
Q 33.59375 5.40625 36.9375 8.5 
Q 40.296875 11.59375 42 16.1875 
Q 43.703125 20.796875 44.140625 26 
Q 44.59375 31.203125 44.59375 35.40625 
Q 44.59375 39.59375 44.140625 44.796875 
Q 43.703125 50 42 54.59375 
Q 40.296875 59.203125 36.9375 62.296875 
Q 33.59375 65.40625 27.796875 65.40625 
z
M 27.796875 72 
Q 35.40625 72 40.09375 68.5 
Q 44.796875 65 47.390625 59.59375 
Q 50 54.203125 50.890625 47.75 
Q 51.796875 41.296875 51.796875 35.40625 
Q 51.796875 29.5 50.890625 23.046875 
Q 50 16.59375 47.390625 11.1875 
Q 44.796875 5.796875 40.09375 2.296875 
Q 35.40625 -1.203125 27.796875 -1.203125 
Q 20.203125 -1.203125 15.5 2.296875 
Q 10.796875 5.796875 8.1875 11.1875 
Q 5.59375 16.59375 4.6875 23.046875 
Q 3.796875 29.5 3.796875 35.40625 
Q 3.796875 41.296875 4.6875 47.75 
Q 5.59375 54.203125 8.1875 59.59375 
Q 10.796875 65 15.5 68.5 
Q 20.203125 72 27.796875 72 
z
" id="Avenir-Book-48"/>
       <path d="M 19.296875 4.796875 
Q 19.296875 2.703125 17.796875 1.046875 
Q 16.296875 -0.59375 13.90625 -0.59375 
Q 11.5 -0.59375 10 1.046875 
Q 8.5 2.703125 8.5 4.796875 
Q 8.5 6.90625 10 8.546875 
Q 11.5 10.203125 13.90625 10.203125 
Q 16.296875 10.203125 17.796875 8.546875 
Q 19.296875 6.90625 19.296875 4.796875 
z
" id="Avenir-Book-46"/>
       <path d="M 46.5 64.203125 
L 17.5 64.203125 
L 17.09375 42.90625 
Q 19.40625 43.796875 21.796875 44.1875 
Q 24.203125 44.59375 26.59375 44.59375 
Q 31.59375 44.59375 35.6875 42.890625 
Q 39.796875 41.203125 42.75 38.140625 
Q 45.703125 35.09375 47.34375 30.9375 
Q 49 26.796875 49 21.90625 
Q 49 16.796875 47.203125 12.546875 
Q 45.40625 8.296875 42.203125 5.25 
Q 39 2.203125 34.640625 0.5 
Q 30.296875 -1.203125 25.203125 -1.203125 
Q 18.5 -1.203125 13.09375 2 
Q 7.703125 5.203125 4.796875 11.40625 
L 11.90625 14.5 
Q 13.90625 10.296875 17.5 7.84375 
Q 21.09375 5.40625 25.796875 5.40625 
Q 29.203125 5.40625 32.09375 6.65625 
Q 35 7.90625 37.140625 10 
Q 39.296875 12.09375 40.546875 15 
Q 41.796875 17.90625 41.796875 21.203125 
Q 41.796875 24.90625 40.5 28 
Q 39.203125 31.09375 36.890625 33.34375 
Q 34.59375 35.59375 31.390625 36.796875 
Q 28.203125 38 24.40625 38 
Q 20.59375 38 16.84375 36.953125 
Q 13.09375 35.90625 9.703125 34.09375 
L 10.40625 70.796875 
L 46.5 70.796875 
z
" id="Avenir-Book-53"/>
      </defs>
      <g transform="translate(-15.288281 383.630625)scale(0.22 -0.22)">
       <use xlink:href="#Avenir-Book-48"/>
       <use x="55.599991" xlink:href="#Avenir-Book-46"/>
       <use x="83.399979" xlink:href="#Avenir-Book-53"/>
      </g>
     </g>
    </g>
    <g id="xtick_2">
     <g id="line2d_2">
      <g>
       <use style="stroke:#000000;stroke-width:0.8;" x="360" xlink:href="#m76180c37c5" y="360"/>
      </g>
     </g>
     <g id="text_2">
      <!-- 1.0 -->
      <defs>
       <path d="M 34.796875 0 
L 27.59375 0 
L 27.59375 61.796875 
L 14.90625 50.59375 
L 10.40625 56 
L 28.40625 70.796875 
L 34.796875 70.796875 
z
" id="Avenir-Book-49"/>
      </defs>
      <g transform="translate(344.711719 383.630625)scale(0.22 -0.22)">
       <use xlink:href="#Avenir-Book-49"/>
       <use x="55.599991" xlink:href="#Avenir-Book-46"/>
       <use x="83.399979" xlink:href="#Avenir-Book-48"/>
      </g>
     </g>
    </g>
    <g id="text_3">
     <!-- Tempo (s) -->
     <defs>
      <path d="M 32.296875 0 
L 25.09375 0 
L 25.09375 64.203125 
L 1.40625 64.203125 
L 1.40625 70.796875 
L 56 70.796875 
L 56 64.203125 
L 32.296875 64.203125 
z
" id="Avenir-Book-84"/>
      <path d="M 43.59375 27 
Q 43.59375 33.703125 39.59375 37.84375 
Q 35.59375 42 28.40625 42 
Q 25.203125 42 22.203125 40.75 
Q 19.203125 39.5 16.953125 37.390625 
Q 14.703125 35.296875 13.34375 32.59375 
Q 12 29.90625 12 27 
z
M 11.796875 21.59375 
Q 12.09375 18.09375 13.5 15 
Q 14.90625 11.90625 17.203125 9.65625 
Q 19.5 7.40625 22.5 6.09375 
Q 25.5 4.796875 29 4.796875 
Q 34.296875 4.796875 38.140625 7.25 
Q 42 9.703125 44 12.90625 
L 49.09375 8.703125 
Q 44.90625 3.40625 39.84375 1.09375 
Q 34.796875 -1.203125 29 -1.203125 
Q 23.796875 -1.203125 19.34375 0.640625 
Q 14.90625 2.5 11.703125 5.796875 
Q 8.5 9.09375 6.640625 13.59375 
Q 4.796875 18.09375 4.796875 23.40625 
Q 4.796875 28.703125 6.59375 33.203125 
Q 8.40625 37.703125 11.59375 41 
Q 14.796875 44.296875 19.09375 46.140625 
Q 23.40625 48 28.40625 48 
Q 33.703125 48 37.890625 46.09375 
Q 42.09375 44.203125 44.9375 41.046875 
Q 47.796875 37.90625 49.296875 33.65625 
Q 50.796875 29.40625 50.796875 24.59375 
L 50.796875 21.59375 
z
" id="Avenir-Book-101"/>
      <path d="M 7.203125 36.40625 
Q 7.203125 39 7.046875 41.59375 
Q 6.90625 44.203125 6.703125 46.796875 
L 13.796875 46.796875 
L 13.796875 39.703125 
L 14 39.703125 
Q 16.40625 43.796875 20.65625 45.890625 
Q 24.90625 48 29.09375 48 
Q 31 48 33.140625 47.59375 
Q 35.296875 47.203125 37.296875 46.140625 
Q 39.296875 45.09375 41.046875 43.1875 
Q 42.796875 41.296875 44 38.296875 
Q 46 42.796875 50.34375 45.390625 
Q 54.703125 48 59.40625 48 
Q 68.40625 48 72.703125 43.25 
Q 77 38.5 77 29.703125 
L 77 0 
L 70.40625 0 
L 70.40625 27.296875 
Q 70.40625 34.40625 67.90625 38.203125 
Q 65.40625 42 58.59375 42 
Q 54.90625 42 52.40625 40.546875 
Q 49.90625 39.09375 48.34375 36.6875 
Q 46.796875 34.296875 46.09375 31.25 
Q 45.40625 28.203125 45.40625 24.90625 
L 45.40625 0 
L 38.796875 0 
L 38.796875 27.296875 
Q 38.796875 34.40625 36.296875 38.203125 
Q 33.796875 42 27 42 
Q 26.40625 42 24.25 41.59375 
Q 22.09375 41.203125 19.796875 39.390625 
Q 17.5 37.59375 15.640625 34 
Q 13.796875 30.40625 13.796875 24 
L 13.796875 0 
L 7.203125 0 
z
" id="Avenir-Book-109"/>
      <path d="M 49.90625 23.40625 
Q 49.90625 27.296875 48.65625 30.6875 
Q 47.40625 34.09375 45.09375 36.59375 
Q 42.796875 39.09375 39.546875 40.546875 
Q 36.296875 42 32.203125 42 
Q 28.09375 42 24.6875 40.546875 
Q 21.296875 39.09375 18.796875 36.59375 
Q 16.296875 34.09375 14.890625 30.6875 
Q 13.5 27.296875 13.5 23.40625 
Q 13.5 19.5 14.890625 16.09375 
Q 16.296875 12.703125 18.796875 10.203125 
Q 21.296875 7.703125 24.6875 6.25 
Q 28.09375 4.796875 32.203125 4.796875 
Q 36.296875 4.796875 39.546875 6.25 
Q 42.796875 7.703125 45.09375 10.203125 
Q 47.40625 12.703125 48.65625 16.09375 
Q 49.90625 19.5 49.90625 23.40625 
z
M 7.203125 46.796875 
L 13.796875 46.796875 
L 13.796875 39 
L 14 39 
Q 15.59375 41.40625 17.796875 43.09375 
Q 20 44.796875 22.390625 45.890625 
Q 24.796875 47 27.34375 47.5 
Q 29.90625 48 32.203125 48 
Q 37.703125 48 42.25 46.140625 
Q 46.796875 44.296875 50.09375 41 
Q 53.40625 37.703125 55.25 33.203125 
Q 57.09375 28.703125 57.09375 23.40625 
Q 57.09375 18.09375 55.25 13.59375 
Q 53.40625 9.09375 50.09375 5.796875 
Q 46.796875 2.5 42.25 0.640625 
Q 37.703125 -1.203125 32.203125 -1.203125 
Q 29.90625 -1.203125 27.34375 -0.703125 
Q 24.796875 -0.203125 22.390625 0.890625 
Q 20 2 17.796875 3.703125 
Q 15.59375 5.40625 14 7.796875 
L 13.796875 7.796875 
L 13.796875 -28.796875 
L 7.203125 -28.796875 
z
" id="Avenir-Book-112"/>
      <path d="M 47.296875 23.40625 
Q 47.296875 27.296875 46.046875 30.6875 
Q 44.796875 34.09375 42.5 36.59375 
Q 40.203125 39.09375 36.953125 40.546875 
Q 33.703125 42 29.59375 42 
Q 25.5 42 22.25 40.546875 
Q 19 39.09375 16.75 36.59375 
Q 14.5 34.09375 13.25 30.6875 
Q 12 27.296875 12 23.40625 
Q 12 19.5 13.25 16.09375 
Q 14.5 12.703125 16.75 10.203125 
Q 19 7.703125 22.25 6.25 
Q 25.5 4.796875 29.59375 4.796875 
Q 33.703125 4.796875 36.953125 6.25 
Q 40.203125 7.703125 42.5 10.203125 
Q 44.796875 12.703125 46.046875 16.09375 
Q 47.296875 19.5 47.296875 23.40625 
z
M 54.5 23.40625 
Q 54.5 18.09375 52.640625 13.59375 
Q 50.796875 9.09375 47.5 5.796875 
Q 44.203125 2.5 39.640625 0.640625 
Q 35.09375 -1.203125 29.59375 -1.203125 
Q 24.203125 -1.203125 19.640625 0.640625 
Q 15.09375 2.5 11.796875 5.796875 
Q 8.5 9.09375 6.640625 13.59375 
Q 4.796875 18.09375 4.796875 23.40625 
Q 4.796875 28.703125 6.640625 33.203125 
Q 8.5 37.703125 11.796875 41 
Q 15.09375 44.296875 19.640625 46.140625 
Q 24.203125 48 29.59375 48 
Q 35.09375 48 39.640625 46.140625 
Q 44.203125 44.296875 47.5 41 
Q 50.796875 37.703125 52.640625 33.203125 
Q 54.5 28.703125 54.5 23.40625 
z
" id="Avenir-Book-111"/>
      <path id="Avenir-Book-32"/>
      <path d="M 25.203125 70.203125 
Q 22 65.09375 19.546875 60.296875 
Q 17.09375 55.5 15.390625 50.546875 
Q 13.703125 45.59375 12.84375 40.296875 
Q 12 35 12 28.796875 
Q 12 22.59375 12.84375 17.390625 
Q 13.703125 12.203125 15.296875 7.390625 
Q 16.90625 2.59375 19.296875 -2.09375 
Q 21.703125 -6.796875 24.796875 -12 
L 19.5 -16 
Q 12.796875 -6.59375 9.09375 5 
Q 5.40625 16.59375 5.40625 28.796875 
Q 5.40625 40.40625 9.046875 52.09375 
Q 12.703125 63.796875 19.90625 73.59375 
z
" id="Avenir-Book-40"/>
      <path d="M 32 35.703125 
Q 30.5 38.59375 28 40.296875 
Q 25.5 42 21.90625 42 
Q 20.203125 42 18.453125 41.59375 
Q 16.703125 41.203125 15.296875 40.34375 
Q 13.90625 39.5 13.046875 38.203125 
Q 12.203125 36.90625 12.203125 35 
Q 12.203125 31.703125 14.5 30.203125 
Q 16.796875 28.703125 21.40625 27.59375 
L 28.09375 26 
Q 33 24.90625 36.25 21.546875 
Q 39.5 18.203125 39.5 13.203125 
Q 39.5 9.40625 37.953125 6.65625 
Q 36.40625 3.90625 33.84375 2.15625 
Q 31.296875 0.40625 28 -0.390625 
Q 24.703125 -1.203125 21.296875 -1.203125 
Q 15.90625 -1.203125 11.25 0.84375 
Q 6.59375 2.90625 3.296875 7.90625 
L 9 11.796875 
Q 11 8.59375 14.046875 6.6875 
Q 17.09375 4.796875 21.296875 4.796875 
Q 23.296875 4.796875 25.296875 5.25 
Q 27.296875 5.703125 28.84375 6.640625 
Q 30.40625 7.59375 31.34375 9.09375 
Q 32.296875 10.59375 32.296875 12.59375 
Q 32.296875 16.09375 29.6875 17.640625 
Q 27.09375 19.203125 23.40625 20.09375 
L 17 21.59375 
Q 15.796875 21.90625 13.75 22.59375 
Q 11.703125 23.296875 9.75 24.6875 
Q 7.796875 26.09375 6.390625 28.34375 
Q 5 30.59375 5 33.90625 
Q 5 37.5 6.453125 40.203125 
Q 7.90625 42.90625 10.34375 44.59375 
Q 12.796875 46.296875 15.890625 47.140625 
Q 19 48 22.296875 48 
Q 27.203125 48 31.390625 46.09375 
Q 35.59375 44.203125 37.90625 39.59375 
z
" id="Avenir-Book-115"/>
      <path d="M 0.796875 -12.59375 
Q 4 -7.5 6.453125 -2.703125 
Q 8.90625 2.09375 10.59375 7.046875 
Q 12.296875 12 13.140625 17.296875 
Q 14 22.59375 14 28.796875 
Q 14 35 13.140625 40.203125 
Q 12.296875 45.40625 10.6875 50.203125 
Q 9.09375 55 6.6875 59.703125 
Q 4.296875 64.40625 1.203125 69.59375 
L 6.5 73.59375 
Q 13.203125 64.203125 16.890625 52.59375 
Q 20.59375 41 20.59375 28.796875 
Q 20.59375 17.203125 16.9375 5.5 
Q 13.296875 -6.203125 6.09375 -16 
z
" id="Avenir-Book-41"/>
     </defs>
     <g transform="translate(131.510625 416.596563)scale(0.22 -0.22)">
      <use xlink:href="#Avenir-Book-84"/>
      <use x="57.228119" xlink:href="#Avenir-Book-101"/>
      <use x="112.82811" xlink:href="#Avenir-Book-109"/>
      <use x="198.028091" xlink:href="#Avenir-Book-112"/>
      <use x="259.128082" xlink:href="#Avenir-Book-111"/>
      <use x="318.42807" xlink:href="#Avenir-Book-32"/>
      <use x="346.228058" xlink:href="#Avenir-Book-40"/>
      <use x="372.228043" xlink:href="#Avenir-Book-115"/>
      <use x="414.828033" xlink:href="#Avenir-Book-41"/>
     </g>
    </g>
   </g>
   <g id="matplotlib.axis_2">
    <g id="ytick_1">
     <g id="line2d_3">
      <defs>
       <path d="M 0 0 
L -3.5 0 
" id="m75d43c3f4f" style="stroke:#000000;stroke-width:0.8;"/>
      </defs>
      <g>
       <use style="stroke:#000000;stroke-width:0.8;" x="0" xlink:href="#m75d43c3f4f" y="326.021143"/>
      </g>
     </g>
     <g id="text_4">
      <!-- -0.1704 -->
      <defs>
       <path d="M 29.5 20.703125 
L 3.796875 20.703125 
L 3.796875 27.296875 
L 29.5 27.296875 
z
" id="Avenir-Book-45"/>
       <path d="M 47.40625 64.203125 
L 18.90625 0 
L 10.796875 0 
L 39.90625 64.203125 
L 5.40625 64.203125 
L 5.40625 70.796875 
L 47.40625 70.796875 
z
" id="Avenir-Book-55"/>
       <path d="M 34.40625 63.59375 
L 34.203125 63.59375 
L 9.796875 23.40625 
L 34.40625 23.40625 
z
M 41.59375 23.40625 
L 51.796875 23.40625 
L 51.796875 16.796875 
L 41.59375 16.796875 
L 41.59375 0 
L 34.40625 0 
L 34.40625 16.796875 
L 3.796875 16.796875 
L 3.796875 25 
L 32.40625 70.796875 
L 41.59375 70.796875 
z
" id="Avenir-Book-52"/>
      </defs>
      <g transform="translate(-81.59375 334.336455)scale(0.22 -0.22)">
       <use xlink:href="#Avenir-Book-45"/>
       <use x="33.299988" xlink:href="#Avenir-Book-48"/>
       <use x="88.899979" xlink:href="#Avenir-Book-46"/>
       <use x="116.699966" xlink:href="#Avenir-Book-49"/>
       <use x="172.299957" xlink:href="#Avenir-Book-55"/>
       <use x="227.899948" xlink:href="#Avenir-Book-48"/>
       <use x="283.499939" xlink:href="#Avenir-Book-52"/>
      </g>
     </g>
    </g>
    <g id="ytick_2">
     <g id="line2d_4">
      <g>
       <use style="stroke:#000000;stroke-width:0.8;" x="0" xlink:href="#m75d43c3f4f" y="180"/>
      </g>
     </g>
     <g id="text_5">
      <!-- 0 -->
      <g transform="translate(-19.230625 188.315313)scale(0.22 -0.22)">
       <use xlink:href="#Avenir-Book-48"/>
      </g>
     </g>
    </g>
    <g id="ytick_3">
     <g id="line2d_5">
      <g>
       <use style="stroke:#000000;stroke-width:0.8;" x="0" xlink:href="#m75d43c3f4f" y="33.978857"/>
      </g>
     </g>
     <g id="text_6">
      <!-- 0.1704 -->
      <g transform="translate(-74.268438 42.29417)scale(0.22 -0.22)">
       <use xlink:href="#Avenir-Book-48"/>
       <use x="55.599991" xlink:href="#Avenir-Book-46"/>
       <use x="83.399979" xlink:href="#Avenir-Book-49"/>
       <use x="138.999969" xlink:href="#Avenir-Book-55"/>
       <use x="194.59996" xlink:href="#Avenir-Book-48"/>
       <use x="250.199951" xlink:href="#Avenir-Book-52"/>
      </g>
     </g>
    </g>
    <g id="text_7">
     <!-- Amplitude (mm) -->
     <defs>
      <path d="M 18.90625 25.203125 
L 49.59375 25.203125 
L 34.296875 62.40625 
z
M 8.40625 0 
L 0 0 
L 30.796875 70.796875 
L 37.796875 70.796875 
L 68.59375 0 
L 60.203125 0 
L 52.40625 18.59375 
L 16.203125 18.59375 
z
" id="Avenir-Book-65"/>
      <path d="M 15.296875 0 
L 8.703125 0 
L 8.703125 75.59375 
L 15.296875 75.59375 
z
" id="Avenir-Book-108"/>
      <path d="M 16.796875 64.796875 
Q 16.796875 62.703125 15.296875 61.34375 
Q 13.796875 60 12 60 
Q 10.203125 60 8.703125 61.34375 
Q 7.203125 62.703125 7.203125 64.796875 
Q 7.203125 66.90625 8.703125 68.25 
Q 10.203125 69.59375 12 69.59375 
Q 13.796875 69.59375 15.296875 68.25 
Q 16.796875 66.90625 16.796875 64.796875 
z
M 15.296875 0 
L 8.703125 0 
L 8.703125 46.796875 
L 15.296875 46.796875 
z
" id="Avenir-Book-105"/>
      <path d="M 31.40625 40.796875 
L 17.90625 40.796875 
L 17.90625 13.203125 
Q 17.90625 10.59375 18.40625 8.9375 
Q 18.90625 7.296875 19.796875 6.390625 
Q 20.703125 5.5 21.953125 5.140625 
Q 23.203125 4.796875 24.703125 4.796875 
Q 26.40625 4.796875 28.203125 5.296875 
Q 30 5.796875 31.5 6.59375 
L 31.796875 0.5 
Q 28.09375 -1.203125 22.90625 -1.203125 
Q 21 -1.203125 18.953125 -0.703125 
Q 16.90625 -0.203125 15.203125 1.1875 
Q 13.5 2.59375 12.390625 5 
Q 11.296875 7.40625 11.296875 11.296875 
L 11.296875 40.796875 
L 1.40625 40.796875 
L 1.40625 46.796875 
L 11.296875 46.796875 
L 11.296875 60 
L 17.90625 60 
L 17.90625 46.796875 
L 31.40625 46.796875 
z
" id="Avenir-Book-116"/>
      <path d="M 41 0 
Q 40.796875 1.90625 40.75 3.75 
Q 40.703125 5.59375 40.703125 7.5 
L 40.5 7.5 
Q 39.40625 5.59375 37.703125 4 
Q 36 2.40625 33.890625 1.25 
Q 31.796875 0.09375 29.4375 -0.546875 
Q 27.09375 -1.203125 24.796875 -1.203125 
Q 15.796875 -1.203125 11.5 3.546875 
Q 7.203125 8.296875 7.203125 17.09375 
L 7.203125 46.796875 
L 13.796875 46.796875 
L 13.796875 20.90625 
Q 13.796875 17 14.390625 14 
Q 15 11 16.453125 8.953125 
Q 17.90625 6.90625 20.34375 5.84375 
Q 22.796875 4.796875 26.5 4.796875 
Q 27 4.796875 29.296875 5.1875 
Q 31.59375 5.59375 34.140625 7.390625 
Q 36.703125 9.203125 38.703125 12.796875 
Q 40.703125 16.40625 40.703125 22.796875 
L 40.703125 46.796875 
L 47.296875 46.796875 
L 47.296875 10.296875 
Q 47.296875 8.40625 47.4375 5.5 
Q 47.59375 2.59375 47.796875 0 
z
" id="Avenir-Book-117"/>
      <path d="M 11.203125 23.40625 
Q 11.203125 19.5 12.453125 16.09375 
Q 13.703125 12.703125 16 10.203125 
Q 18.296875 7.703125 21.546875 6.25 
Q 24.796875 4.796875 28.90625 4.796875 
Q 32.90625 4.796875 36.34375 6.25 
Q 39.796875 7.703125 42.296875 10.203125 
Q 44.796875 12.703125 46.1875 16.09375 
Q 47.59375 19.5 47.59375 23.40625 
Q 47.59375 27.296875 46.1875 30.6875 
Q 44.796875 34.09375 42.296875 36.59375 
Q 39.796875 39.09375 36.34375 40.546875 
Q 32.90625 42 28.90625 42 
Q 24.796875 42 21.546875 40.546875 
Q 18.296875 39.09375 16 36.59375 
Q 13.703125 34.09375 12.453125 30.6875 
Q 11.203125 27.296875 11.203125 23.40625 
z
M 53.90625 0 
L 47.296875 0 
L 47.296875 7.796875 
L 47.09375 7.796875 
Q 45.5 5.40625 43.296875 3.703125 
Q 41.09375 2 38.6875 0.890625 
Q 36.296875 -0.203125 33.75 -0.703125 
Q 31.203125 -1.203125 28.90625 -1.203125 
Q 23.40625 -1.203125 18.84375 0.640625 
Q 14.296875 2.5 11 5.796875 
Q 7.703125 9.09375 5.84375 13.59375 
Q 4 18.09375 4 23.40625 
Q 4 28.703125 5.84375 33.203125 
Q 7.703125 37.703125 11 41 
Q 14.296875 44.296875 18.84375 46.140625 
Q 23.40625 48 28.90625 48 
Q 31.203125 48 33.75 47.5 
Q 36.296875 47 38.6875 45.890625 
Q 41.09375 44.796875 43.296875 43.09375 
Q 45.5 41.40625 47.09375 39 
L 47.296875 39 
L 47.296875 75.59375 
L 53.90625 75.59375 
z
" id="Avenir-Book-100"/>
     </defs>
     <g transform="translate(-97.929063 259.043594)rotate(-90)scale(0.22 -0.22)">
      <use xlink:href="#Avenir-Book-65"/>
      <use x="68.599991" xlink:href="#Avenir-Book-109"/>
      <use x="153.799973" xlink:href="#Avenir-Book-112"/>
      <use x="214.899963" xlink:href="#Avenir-Book-108"/>
      <use x="238.899948" xlink:href="#Avenir-Book-105"/>
      <use x="262.899933" xlink:href="#Avenir-Book-116"/>
      <use x="296.09993" xlink:href="#Avenir-Book-117"/>
      <use x="351.699921" xlink:href="#Avenir-Book-100"/>
      <use x="412.799911" xlink:href="#Avenir-Book-101"/>
      <use x="468.399902" xlink:href="#Avenir-Book-32"/>
      <use x="496.19989" xlink:href="#Avenir-Book-40"/>
      <use x="522.199875" xlink:href="#Avenir-Book-109"/>
      <use x="607.399857" xlink:href="#Avenir-Book-109"/>
      <use x="692.599838" xlink:href="#Avenir-Book-41"/>
     </g>
    </g>
   </g>
   <g id="line2d_6">
    <path clip-path="url(#pa466994a4f)" d="M -1 180 
L 1.818238 180 
L 5.472951 180 
L 9.127708 180 
L 12.782421 180 
L 16.437135 180 
L 20.091892 180 
L 23.746605 180 
L 27.401319 180 
L 31.056075 180 
L 34.710789 180 
L 38.365546 180 
L 42.020259 180 
L 45.674973 180 
L 49.329729 180 
L 52.984443 180 
L 56.639156 180 
L 60.293913 180 
L 63.948627 180 
L 67.603383 180 
L 71.258097 180 
L 74.91281 180 
L 78.567567 326.021143 
L 82.222281 180 
L 85.876994 180 
L 89.531751 180 
L 93.186464 180 
L 96.841221 180 
L 100.495935 180 
L 104.150648 180 
L 107.805405 180 
L 111.460118 180 
L 115.114832 180 
L 118.769589 180 
L 122.424302 180 
L 126.079016 180 
L 129.733772 180 
L 133.388486 180 
L 137.043243 180 
L 140.697956 180 
L 144.35267 180 
L 148.007426 180 
L 151.66214 180 
L 155.316853 180 
L 158.97161 180 
L 162.626324 180 
L 166.28108 180 
L 169.935794 180 
L 173.590507 180 
L 177.245264 180 
L 180.899978 180 
L 184.554691 180 
L 188.209448 180 
L 191.864161 180 
L 195.518918 180 
L 199.173632 180 
L 202.828345 180 
L 206.483102 180 
L 210.137815 180 
L 213.792529 180 
L 217.447286 180 
L 221.101999 180 
L 224.756756 180 
L 228.411469 180 
L 232.066183 180 
L 235.72094 180 
L 239.375653 180 
L 243.030367 180 
L 246.685123 180 
L 250.339837 180 
L 253.994594 180 
L 257.649307 180 
L 261.304021 180 
L 264.958777 180 
L 268.613491 180 
L 272.268204 180 
L 275.922961 33.978857 
L 279.577675 33.978857 
L 283.232388 33.978857 
L 286.887145 180 
L 290.541858 180 
L 294.196615 33.978857 
L 297.851329 33.978857 
L 301.506042 33.978857 
L 305.160799 33.978857 
L 308.815512 33.978857 
L 312.470226 33.978857 
L 316.124983 33.978857 
L 319.779696 33.978857 
L 323.434453 33.978857 
L 327.089166 33.978857 
L 330.74388 33.978857 
L 334.398637 33.978857 
L 338.05335 33.978857 
L 341.708064 33.978857 
L 345.36282 33.978857 
L 349.017534 33.978857 
L 352.672291 33.978857 
L 356.327004 33.978857 
L 359.981718 33.978857 
L 361 33.978857 
" style="fill:none;stroke:#1f77b4;stroke-linecap:square;stroke-width:3;"/>
   </g>
   <g id="line2d_7">
    <path clip-path="url(#pa466994a4f)" d="M -1 326.021143 
L 1.818238 326.021143 
L 5.472951 326.021143 
L 9.127708 326.021143 
L 12.782421 326.021143 
L 16.437135 326.021143 
L 20.091892 326.021143 
L 23.746605 326.021143 
L 27.401319 326.021143 
L 31.056075 326.021143 
L 34.710789 326.021143 
L 38.365546 326.021143 
L 42.020259 326.021143 
L 45.674973 326.021143 
L 49.329729 326.021143 
L 52.984443 326.021143 
L 56.639156 180 
L 60.293913 180 
L 63.948627 180 
L 67.603383 180 
L 71.258097 180 
L 74.91281 180 
L 78.567567 180 
L 82.222281 180 
L 85.876994 180 
L 89.531751 180 
L 93.186464 180 
L 96.841221 180 
L 100.495935 180 
L 104.150648 180 
L 107.805405 180 
L 111.460118 180 
L 115.114832 180 
L 118.769589 180 
L 122.424302 180 
L 126.079016 180 
L 129.733772 180 
L 133.388486 180 
L 137.043243 180 
L 140.697956 180 
L 144.35267 180 
L 148.007426 180 
L 151.66214 180 
L 155.316853 180 
L 158.97161 180 
L 162.626324 180 
L 166.28108 180 
L 169.935794 180 
L 173.590507 180 
L 177.245264 33.978857 
L 180.899978 180 
L 184.554691 33.978857 
L 188.209448 33.978857 
L 191.864161 33.978857 
L 195.518918 33.978857 
L 199.173632 33.978857 
L 202.828345 33.978857 
L 206.483102 33.978857 
L 207.358581 -1 
" style="fill:none;stroke:#17becf;stroke-linecap:square;stroke-width:3;"/>
   </g>
   <g id="line2d_8">
    <path clip-path="url(#pa466994a4f)" d="M 0 33.978857 
L 360 33.978857 
" style="fill:none;stroke:#000000;stroke-dasharray:5.55,2.4;stroke-dashoffset:0;stroke-width:1.5;"/>
   </g>
   <g id="line2d_9">
    <path clip-path="url(#pa466994a4f)" d="M 0 326.021143 
L 360 326.021143 
" style="fill:none;stroke:#000000;stroke-dasharray:5.55,2.4;stroke-dashoffset:0;stroke-width:1.5;"/>
   </g>
   <g id="patch_3">
    <path d="M 0 360 
L 0 0 
" style="fill:none;stroke:#000000;stroke-linecap:square;stroke-linejoin:miter;stroke-width:2;"/>
   </g>
   <g id="patch_4">
    <path d="M 360 360 
L 360 0 
" style="fill:none;stroke:#000000;stroke-linecap:square;stroke-linejoin:miter;stroke-width:2;"/>
   </g>
   <g id="patch_5">
    <path d="M 0 360 
L 360 360 
" style="fill:none;stroke:#000000;stroke-linecap:square;stroke-linejoin:miter;stroke-width:2;"/>
   </g>
   <g id="patch_6">
    <path d="M 0 0 
L 360 0 
" style="fill:none;stroke:#000000;stroke-linecap:square;stroke-linejoin:miter;stroke-width:2;"/>
   </g>
   <g id="text_8">
    <!-- Flutuação na medição da Amplitude -->
    <defs>
     <path d="M 16.796875 0 
L 9.59375 0 
L 9.59375 70.796875 
L 52.296875 70.796875 
L 52.296875 64.203125 
L 16.796875 64.203125 
L 16.796875 40.09375 
L 49.796875 40.09375 
L 49.796875 33.5 
L 16.796875 33.5 
z
" id="Avenir-Book-70"/>
     <path d="M 33.796875 23.296875 
Q 31.296875 23.296875 27.546875 23.046875 
Q 23.796875 22.796875 20.34375 21.84375 
Q 16.90625 20.90625 14.453125 18.90625 
Q 12 16.90625 12 13.40625 
Q 12 11.09375 12.953125 9.4375 
Q 13.90625 7.796875 15.5 6.75 
Q 17.09375 5.703125 19.046875 5.25 
Q 21 4.796875 23 4.796875 
Q 26.59375 4.796875 29.25 6 
Q 31.90625 7.203125 33.703125 9.25 
Q 35.5 11.296875 36.34375 14.046875 
Q 37.203125 16.796875 37.203125 19.90625 
L 37.203125 23.296875 
z
M 37.203125 28.703125 
L 37.203125 29.90625 
Q 37.203125 42 25.203125 42 
Q 17 42 10.90625 36.5 
L 6.90625 41.203125 
Q 13.5 48 26.703125 48 
Q 30.09375 48 33.25 47 
Q 36.40625 46 38.703125 43.953125 
Q 41 41.90625 42.390625 38.796875 
Q 43.796875 35.703125 43.796875 31.40625 
L 43.796875 10.5 
Q 43.796875 7.796875 44.046875 4.84375 
Q 44.296875 1.90625 44.59375 0 
L 38.203125 0 
Q 37.90625 1.703125 37.75 3.703125 
Q 37.59375 5.703125 37.59375 7.59375 
L 37.40625 7.59375 
Q 34.5 2.90625 30.546875 0.84375 
Q 26.59375 -1.203125 20.90625 -1.203125 
Q 17.796875 -1.203125 14.890625 -0.34375 
Q 12 0.5 9.75 2.25 
Q 7.5 4 6.140625 6.546875 
Q 4.796875 9.09375 4.796875 12.5 
Q 4.796875 18.203125 7.75 21.453125 
Q 10.703125 24.703125 15.140625 26.296875 
Q 19.59375 27.90625 24.640625 28.296875 
Q 29.703125 28.703125 33.90625 28.703125 
z
" id="Avenir-Book-97"/>
     <path d="M 25.203125 -6 
L 25.40625 -6.09375 
Q 26.203125 -5.796875 27.046875 -5.59375 
Q 27.90625 -5.40625 29 -5.40625 
Q 32 -5.40625 34.34375 -7.34375 
Q 36.703125 -9.296875 36.703125 -12.90625 
Q 36.703125 -15.203125 35.640625 -16.890625 
Q 34.59375 -18.59375 32.9375 -19.640625 
Q 31.296875 -20.703125 29.25 -21.203125 
Q 27.203125 -21.703125 25.203125 -21.703125 
Q 20 -21.703125 15.5 -19.296875 
L 17.09375 -15.703125 
Q 20.5 -17.5 24.5 -17.5 
Q 26.703125 -17.5 28.703125 -16.5 
Q 30.703125 -15.5 30.703125 -13 
Q 30.703125 -12.59375 30.5 -11.890625 
Q 30.296875 -11.203125 29.796875 -10.546875 
Q 29.296875 -9.90625 28.296875 -9.453125 
Q 27.296875 -9 25.796875 -9 
Q 24.40625 -9 23.296875 -9.296875 
Q 22.203125 -9.59375 21.203125 -10.09375 
L 19.40625 -8.40625 
L 24.90625 -0.90625 
Q 21.90625 -0.5 19.296875 0.5 
Q 14.703125 2.40625 11.453125 5.703125 
Q 8.203125 9 6.5 13.546875 
Q 4.796875 18.09375 4.796875 23.40625 
Q 4.796875 28.703125 6.5 33.25 
Q 8.203125 37.796875 11.453125 41.09375 
Q 14.703125 44.40625 19.296875 46.25 
Q 23.90625 48.09375 29.59375 48 
Q 34.40625 47.90625 38.796875 45.953125 
Q 43.203125 44 46.703125 39.90625 
L 41.296875 35.796875 
Q 39.59375 38.40625 36.546875 40.203125 
Q 33.5 42 29.59375 42 
Q 25.5 42.09375 22.25 40.6875 
Q 19 39.296875 16.703125 36.796875 
Q 14.40625 34.296875 13.203125 30.84375 
Q 12 27.40625 12 23.40625 
Q 12 19.40625 13.203125 15.953125 
Q 14.40625 12.5 16.703125 10 
Q 19 7.5 22.25 6.09375 
Q 25.5 4.703125 29.59375 4.796875 
Q 33.5 4.796875 36.546875 6.59375 
Q 39.59375 8.40625 41.296875 11 
L 46.703125 6.90625 
Q 43.203125 2.796875 38.796875 0.84375 
Q 34.40625 -1.09375 29.59375 -1.203125 
L 28.796875 -1.203125 
z
" id="Avenir-Book-231"/>
     <path d="M 33.796875 23.296875 
Q 31.296875 23.296875 27.546875 23.046875 
Q 23.796875 22.796875 20.34375 21.84375 
Q 16.90625 20.90625 14.453125 18.90625 
Q 12 16.90625 12 13.40625 
Q 12 11.09375 12.953125 9.4375 
Q 13.90625 7.796875 15.5 6.75 
Q 17.09375 5.703125 19.046875 5.25 
Q 21 4.796875 23 4.796875 
Q 26.59375 4.796875 29.25 6 
Q 31.90625 7.203125 33.703125 9.25 
Q 35.5 11.296875 36.34375 14.046875 
Q 37.203125 16.796875 37.203125 19.90625 
L 37.203125 23.296875 
z
M 37.203125 28.703125 
L 37.203125 29.90625 
Q 37.203125 42 25.203125 42 
Q 17 42 10.90625 36.5 
L 6.90625 41.203125 
Q 13.5 48 26.703125 48 
Q 30.09375 48 33.25 47 
Q 36.40625 46 38.703125 43.953125 
Q 41 41.90625 42.390625 38.796875 
Q 43.796875 35.703125 43.796875 31.40625 
L 43.796875 10.5 
Q 43.796875 7.796875 44.046875 4.84375 
Q 44.296875 1.90625 44.59375 0 
L 38.203125 0 
Q 37.90625 1.703125 37.75 3.703125 
Q 37.59375 5.703125 37.59375 7.59375 
L 37.40625 7.59375 
Q 34.5 2.90625 30.546875 0.84375 
Q 26.59375 -1.203125 20.90625 -1.203125 
Q 17.796875 -1.203125 14.890625 -0.34375 
Q 12 0.5 9.75 2.25 
Q 7.5 4 6.140625 6.546875 
Q 4.796875 9.09375 4.796875 12.5 
Q 4.796875 18.203125 7.75 21.453125 
Q 10.703125 24.703125 15.140625 26.296875 
Q 19.59375 27.90625 24.640625 28.296875 
Q 29.703125 28.703125 33.90625 28.703125 
z
M 9.796875 57.59375 
Q 10.09375 59.5 10.75 61.390625 
Q 11.40625 63.296875 12.5 64.75 
Q 13.59375 66.203125 15.140625 67.09375 
Q 16.703125 68 19 68 
Q 20.796875 68 22.640625 67.296875 
Q 24.5 66.59375 26.296875 65.703125 
Q 28.09375 64.90625 29.796875 64.15625 
Q 31.5 63.40625 33 63.40625 
Q 35.296875 63.40625 36.34375 64.953125 
Q 37.40625 66.5 37.90625 68.40625 
L 42.203125 68.40625 
Q 41.90625 66.40625 41.25 64.546875 
Q 40.59375 62.703125 39.5 61.25 
Q 38.40625 59.796875 36.796875 58.890625 
Q 35.203125 58 33 58 
Q 31.203125 58 29.34375 58.75 
Q 27.5 59.5 25.703125 60.296875 
Q 24 61.203125 22.296875 61.890625 
Q 20.59375 62.59375 19 62.59375 
Q 16.703125 62.59375 15.640625 61.046875 
Q 14.59375 59.5 14.09375 57.59375 
z
" id="Avenir-Book-227"/>
     <path d="M 13.5 46.796875 
Q 13.703125 44.90625 13.75 43.046875 
Q 13.796875 41.203125 13.796875 39.296875 
L 14 39.296875 
Q 15.09375 41.203125 16.796875 42.796875 
Q 18.5 44.40625 20.59375 45.546875 
Q 22.703125 46.703125 25.046875 47.34375 
Q 27.40625 48 29.703125 48 
Q 38.703125 48 43 43.25 
Q 47.296875 38.5 47.296875 29.703125 
L 47.296875 0 
L 40.703125 0 
L 40.703125 25.90625 
Q 40.703125 33.703125 38 37.84375 
Q 35.296875 42 28 42 
Q 27.5 42 25.203125 41.59375 
Q 22.90625 41.203125 20.34375 39.390625 
Q 17.796875 37.59375 15.796875 34 
Q 13.796875 30.40625 13.796875 24 
L 13.796875 0 
L 7.203125 0 
L 7.203125 36.5 
Q 7.203125 38.40625 7.046875 41.296875 
Q 6.90625 44.203125 6.703125 46.796875 
z
" id="Avenir-Book-110"/>
    </defs>
    <g transform="translate(-33.926625 -7.602375)scale(0.264 -0.264)">
     <use xlink:href="#Avenir-Book-70"/>
     <use x="55.599991" xlink:href="#Avenir-Book-108"/>
     <use x="79.599976" xlink:href="#Avenir-Book-117"/>
     <use x="135.199966" xlink:href="#Avenir-Book-116"/>
     <use x="168.399963" xlink:href="#Avenir-Book-117"/>
     <use x="223.999954" xlink:href="#Avenir-Book-97"/>
     <use x="275.899948" xlink:href="#Avenir-Book-231"/>
     <use x="324.099945" xlink:href="#Avenir-Book-227"/>
     <use x="375.999939" xlink:href="#Avenir-Book-111"/>
     <use x="435.299927" xlink:href="#Avenir-Book-32"/>
     <use x="463.099915" xlink:href="#Avenir-Book-110"/>
     <use x="518.699905" xlink:href="#Avenir-Book-97"/>
     <use x="570.599899" xlink:href="#Avenir-Book-32"/>
     <use x="598.399887" xlink:href="#Avenir-Book-109"/>
     <use x="683.599869" xlink:href="#Avenir-Book-101"/>
     <use x="739.19986" xlink:href="#Avenir-Book-100"/>
     <use x="800.29985" xlink:href="#Avenir-Book-105"/>
     <use x="824.299835" xlink:href="#Avenir-Book-231"/>
     <use x="872.499832" xlink:href="#Avenir-Book-227"/>
     <use x="924.399826" xlink:href="#Avenir-Book-111"/>
     <use x="983.699814" xlink:href="#Avenir-Book-32"/>
     <use x="1011.499802" xlink:href="#Avenir-Book-100"/>
     <use x="1072.599792" xlink:href="#Avenir-Book-97"/>
     <use x="1124.499786" xlink:href="#Avenir-Book-32"/>
     <use x="1152.299774" xlink:href="#Avenir-Book-65"/>
     <use x="1220.899765" xlink:href="#Avenir-Book-109"/>
     <use x="1306.099747" xlink:href="#Avenir-Book-112"/>
     <use x="1367.199738" xlink:href="#Avenir-Book-108"/>
     <use x="1391.199722" xlink:href="#Avenir-Book-105"/>
     <use x="1415.199707" xlink:href="#Avenir-Book-116"/>
     <use x="1448.399704" xlink:href="#Avenir-Book-117"/>
     <use x="1503.999695" xlink:href="#Avenir-Book-100"/>
     <use x="1565.099686" xlink:href="#Avenir-Book-101"/>
    </g>
   </g>
   <g id="legend_1">
    <g id="line2d_10">
     <path d="M 9.460156 96.812812 
L 47.460156 96.812812 
" style="fill:none;stroke:#1f77b4;stroke-linecap:square;stroke-width:3;"/>
    </g>
    <g id="line2d_11"/>
    <g id="text_9">
     <!-- Laser Verde -->
     <defs>
      <path d="M 16.796875 6.59375 
L 49.796875 6.59375 
L 49.796875 0 
L 9.59375 0 
L 9.59375 70.796875 
L 16.796875 70.796875 
z
" id="Avenir-Book-76"/>
      <path d="M 7.90625 32.203125 
Q 7.90625 35.296875 7.75 38.5 
Q 7.59375 41.703125 7.5 46.796875 
L 14 46.796875 
L 14 38.09375 
L 14.203125 38.09375 
Q 14.90625 40 16.203125 41.75 
Q 17.5 43.5 19.34375 44.890625 
Q 21.203125 46.296875 23.640625 47.140625 
Q 26.09375 48 29.203125 48 
Q 32 48 34.09375 47.40625 
L 32.796875 40.90625 
Q 31.5 41.40625 29 41.40625 
Q 25.203125 41.40625 22.5 39.953125 
Q 19.796875 38.5 18 36.25 
Q 16.203125 34 15.34375 31.390625 
Q 14.5 28.796875 14.5 26.40625 
L 14.5 0 
L 7.90625 0 
z
" id="Avenir-Book-114"/>
      <path d="M 30.203125 10.796875 
L 30.40625 10.796875 
L 53.59375 70.796875 
L 61.40625 70.796875 
L 33.796875 0 
L 26.59375 0 
L -0.296875 70.796875 
L 7.703125 70.796875 
z
" id="Avenir-Book-86"/>
     </defs>
     <g transform="translate(62.660156 103.462812)scale(0.19 -0.19)">
      <use xlink:href="#Avenir-Book-76"/>
      <use x="49.999985" xlink:href="#Avenir-Book-97"/>
      <use x="101.899979" xlink:href="#Avenir-Book-115"/>
      <use x="144.499969" xlink:href="#Avenir-Book-101"/>
      <use x="200.09996" xlink:href="#Avenir-Book-114"/>
      <use x="233.299957" xlink:href="#Avenir-Book-32"/>
      <use x="261.099945" xlink:href="#Avenir-Book-86"/>
      <use x="322.121811" xlink:href="#Avenir-Book-101"/>
      <use x="377.721802" xlink:href="#Avenir-Book-114"/>
      <use x="410.906174" xlink:href="#Avenir-Book-100"/>
      <use x="472.006165" xlink:href="#Avenir-Book-101"/>
     </g>
    </g>
    <g id="line2d_12">
     <path d="M 9.460156 126.147031 
L 47.460156 126.147031 
" style="fill:none;stroke:#17becf;stroke-linecap:square;stroke-width:3;"/>
    </g>
    <g id="line2d_13"/>
    <g id="text_10">
     <!-- Laser Azul -->
     <defs>
      <path d="M 39.296875 42 
L 11.90625 6 
L 40.296875 6 
L 40.296875 0 
L 2.296875 0 
L 2.296875 4.796875 
L 29.703125 40.796875 
L 3.703125 40.796875 
L 3.703125 46.796875 
L 39.296875 46.796875 
z
" id="Avenir-Book-122"/>
     </defs>
     <g transform="translate(62.660156 132.797031)scale(0.19 -0.19)">
      <use xlink:href="#Avenir-Book-76"/>
      <use x="49.999985" xlink:href="#Avenir-Book-97"/>
      <use x="101.899979" xlink:href="#Avenir-Book-115"/>
      <use x="144.499969" xlink:href="#Avenir-Book-101"/>
      <use x="200.09996" xlink:href="#Avenir-Book-114"/>
      <use x="233.299957" xlink:href="#Avenir-Book-32"/>
      <use x="261.099945" xlink:href="#Avenir-Book-65"/>
      <use x="329.699936" xlink:href="#Avenir-Book-122"/>
      <use x="372.299927" xlink:href="#Avenir-Book-117"/>
      <use x="427.899918" xlink:href="#Avenir-Book-108"/>
     </g>
    </g>
   </g>
  </g>
 </g>
 <defs>
  <clipPath id="pa466994a4f">
   <rect height="360" width="360" x="0" y="0"/>
  </clipPath>
 </defs>
</svg>
